<mxfile host="app.diagrams.net" modified="2024-03-17T14:27:56.878Z" agent="Mozilla/5.0 (Windows NT 10.0; Win64; x64) AppleWebKit/537.36 (KHTML, like Gecko) Chrome/122.0.0.0 Safari/537.36" etag="dE-H7ZtjwHTggEsGFZVD" version="24.0.7" type="device">
  <diagram name="Страница 1" id="K_nZ64Utd5DLflTbeKIy">
    <mxGraphModel dx="2266" dy="818" grid="1" gridSize="10" guides="1" tooltips="1" connect="1" arrows="1" fold="1" page="1" pageScale="1" pageWidth="827" pageHeight="1169" math="0" shadow="0">
      <root>
        <mxCell id="0" />
        <mxCell id="1" parent="0" />
        <mxCell id="NYu8AcVOIsEXXXueLIA_-4" value="" style="edgeStyle=orthogonalEdgeStyle;rounded=0;orthogonalLoop=1;jettySize=auto;html=1;entryX=1;entryY=0.5;entryDx=0;entryDy=0;" parent="1" source="NYu8AcVOIsEXXXueLIA_-7" target="NYu8AcVOIsEXXXueLIA_-17" edge="1">
          <mxGeometry relative="1" as="geometry">
            <mxPoint x="290" y="160" as="targetPoint" />
          </mxGeometry>
        </mxCell>
        <mxCell id="NYu8AcVOIsEXXXueLIA_-5" style="edgeStyle=orthogonalEdgeStyle;rounded=0;orthogonalLoop=1;jettySize=auto;html=1;entryX=0.5;entryY=0;entryDx=0;entryDy=0;" parent="1" source="NYu8AcVOIsEXXXueLIA_-7" target="gNkD2l2tRffT2OGlJnD8-1" edge="1">
          <mxGeometry relative="1" as="geometry">
            <mxPoint x="290" y="223" as="targetPoint" />
          </mxGeometry>
        </mxCell>
        <mxCell id="NYu8AcVOIsEXXXueLIA_-6" style="edgeStyle=orthogonalEdgeStyle;rounded=0;orthogonalLoop=1;jettySize=auto;html=1;entryX=0;entryY=0.5;entryDx=0;entryDy=0;" parent="1" source="NYu8AcVOIsEXXXueLIA_-7" target="NYu8AcVOIsEXXXueLIA_-10" edge="1">
          <mxGeometry relative="1" as="geometry">
            <Array as="points">
              <mxPoint x="290" y="180" />
              <mxPoint x="380" y="180" />
              <mxPoint x="380" y="135" />
            </Array>
          </mxGeometry>
        </mxCell>
        <mxCell id="NYu8AcVOIsEXXXueLIA_-34" style="edgeStyle=orthogonalEdgeStyle;rounded=0;orthogonalLoop=1;jettySize=auto;html=1;entryX=0;entryY=0.5;entryDx=0;entryDy=0;" parent="1" source="NYu8AcVOIsEXXXueLIA_-7" edge="1">
          <mxGeometry relative="1" as="geometry">
            <mxPoint x="420" y="215" as="targetPoint" />
            <Array as="points">
              <mxPoint x="290" y="180" />
              <mxPoint x="380" y="180" />
              <mxPoint x="380" y="215" />
            </Array>
          </mxGeometry>
        </mxCell>
        <mxCell id="NYu8AcVOIsEXXXueLIA_-7" value="Запуск приложения" style="rounded=0;whiteSpace=wrap;html=1;" parent="1" vertex="1">
          <mxGeometry x="230" y="60" width="120" height="60" as="geometry" />
        </mxCell>
        <mxCell id="NYu8AcVOIsEXXXueLIA_-10" value="Войти в аккаунт" style="html=1;whiteSpace=wrap;" parent="1" vertex="1">
          <mxGeometry x="420" y="110" width="120" height="50" as="geometry" />
        </mxCell>
        <mxCell id="gNkD2l2tRffT2OGlJnD8-2" style="edgeStyle=orthogonalEdgeStyle;rounded=0;orthogonalLoop=1;jettySize=auto;html=1;entryX=0;entryY=0.5;entryDx=0;entryDy=0;" parent="1" source="NYu8AcVOIsEXXXueLIA_-17" target="gNkD2l2tRffT2OGlJnD8-1" edge="1">
          <mxGeometry relative="1" as="geometry">
            <Array as="points">
              <mxPoint x="80" y="180" />
              <mxPoint x="80" y="290" />
            </Array>
          </mxGeometry>
        </mxCell>
        <mxCell id="NYu8AcVOIsEXXXueLIA_-17" value="Просмотреть страницу для незарегистрированных пользователей" style="whiteSpace=wrap;html=1;fillColor=rgb(255, 255, 255);strokeColor=rgb(0, 0, 0);fontColor=rgb(0, 0, 0);rounded=0;" parent="1" vertex="1">
          <mxGeometry x="90" y="150" width="140" height="60" as="geometry" />
        </mxCell>
        <mxCell id="NYu8AcVOIsEXXXueLIA_-18" value="" style="ellipse;html=1;shape=endState;fillColor=#000000;strokeColor=#ff0000;" parent="1" vertex="1">
          <mxGeometry x="275" y="370" width="30" height="30" as="geometry" />
        </mxCell>
        <mxCell id="NYu8AcVOIsEXXXueLIA_-22" value="Регистрация" style="whiteSpace=wrap;html=1;fillColor=rgb(255, 255, 255);strokeColor=rgb(0, 0, 0);fontColor=rgb(0, 0, 0);" parent="1" vertex="1">
          <mxGeometry x="420" y="190" width="120" height="50" as="geometry" />
        </mxCell>
        <mxCell id="NYu8AcVOIsEXXXueLIA_-25" style="edgeStyle=orthogonalEdgeStyle;rounded=0;orthogonalLoop=1;jettySize=auto;html=1;entryX=0.5;entryY=0;entryDx=0;entryDy=0;" parent="1" source="NYu8AcVOIsEXXXueLIA_-26" target="NYu8AcVOIsEXXXueLIA_-7" edge="1">
          <mxGeometry relative="1" as="geometry" />
        </mxCell>
        <mxCell id="NYu8AcVOIsEXXXueLIA_-26" value="" style="ellipse;html=1;shape=startState;fillColor=#000000;strokeColor=#ff0000;" parent="1" vertex="1">
          <mxGeometry x="275" width="30" height="30" as="geometry" />
        </mxCell>
        <mxCell id="gNkD2l2tRffT2OGlJnD8-4" style="edgeStyle=orthogonalEdgeStyle;rounded=0;orthogonalLoop=1;jettySize=auto;html=1;entryX=0.5;entryY=0;entryDx=0;entryDy=0;" parent="1" source="gNkD2l2tRffT2OGlJnD8-1" target="NYu8AcVOIsEXXXueLIA_-18" edge="1">
          <mxGeometry relative="1" as="geometry" />
        </mxCell>
        <mxCell id="gNkD2l2tRffT2OGlJnD8-1" value="Выйти из приложения" style="rounded=0;whiteSpace=wrap;html=1;" parent="1" vertex="1">
          <mxGeometry x="230" y="260" width="120" height="60" as="geometry" />
        </mxCell>
      </root>
    </mxGraphModel>
  </diagram>
</mxfile>
